<?xml version="1.0" encoding="utf-8"?>
<svg xmlns="http://www.w3.org/2000/svg" xmlns:xlink="http://www.w3.org/1999/xlink" viewBox="0 0 272 79.77">
<defs>
 <style>
.cls-1 { fill: none; }
.cls-2 { clip-path: url(#sid2); }
.cls-3 { fill: #08294d; }
</style>
  <clipPath id="sid2">
   <rect class="cls-1" width="272" height="79.77"/>
  </clipPath>
 </defs>
 <g class="cls-2">
  <path class="cls-3" d="M80.39,24.28c.08-3.29,.11-5.76,.11-7.38,0-3.07,.25-5.1,.75-6.09,.5-.99,1.69-1.84,3.56-2.54,2.48-.76,3.72-2.15,3.72-4.17,0-2.48-1.7-3.72-5.11-3.72h-24.79c-1.4,0-2.64,.35-3.72,1.06-1.08,.71-1.62,1.71-1.62,3s.28,2.17,.84,2.6c.56,.43,1.49,.87,2.78,1.33,1.3,.46,2.28,1.14,2.94,2.03,.66,.89,.99,2.39,.99,4.52l.11,6.62c0,2.88-.18,4.99-.55,6.33-.37,1.34-1.15,2.3-2.34,2.85-1.19,.56-3.1,.84-5.71,.84h-16.39c-2.48,0-4.23-.24-5.24-.72-1.01-.48-1.63-1.3-1.86-2.44-.23-1.15-.34-3.16-.34-6.04v-5c0-2.78,.11-4.84,.34-6.16,.09-.89,.44-1.51,1.04-1.86,.6-.35,1.49-.7,2.67-1.06,1.18-.36,2.08-.82,2.7-1.39,.61-.57,.92-1.46,.92-2.67-.17-2.56-2.15-3.83-5.94-3.83H7.23C2.65,.37,.36,1.69,.36,4.32c0,1.4,.34,2.35,1.02,2.85,.68,.5,1.76,1.03,3.24,1.58,1.48,.55,2.46,1.16,2.95,1.85,.28,.59,.49,1.35,.61,2.3,.12,.95,.2,1.96,.24,3.05,.04,1.09,.07,1.94,.09,2.57,.15,6.06,.23,10.55,.23,13.49v14.31c0,2.94-.08,7.43-.23,13.49-.02,.57-.05,1.41-.09,2.51-.04,1.11-.11,2.13-.23,3.08-.11,.95-.32,1.72-.62,2.33-.47,.76-1.47,1.43-3,2.03-1.52,.6-2.61,1.12-3.25,1.58-.64,.45-.97,1.35-.97,2.67,.09,1.65,.76,2.72,1.99,3.21,1.23,.49,2.86,.74,4.88,.74H30.61c3.41,0,5.11-1.44,5.11-4.31-.08-1.17-.43-2.04-1.06-2.6-.63-.56-1.54-1.11-2.71-1.65-1.17-.54-2.06-1.13-2.66-1.77-.6-.64-.89-1.62-.89-2.92-.15-6.51-.23-11.43-.23-14.76,0-3.92,.89-6.24,2.67-6.98,1.69-.7,4.68-1.05,8.97-1.05,2.94,0,7.28,.08,13.04,.23,2.56,0,4.41,.34,5.55,1.01,1.15,.67,1.86,1.64,2.14,2.89,.28,1.26,.43,3.14,.43,5.63,0,5.05-.15,9.59-.45,13.62-.08,1.12-.43,1.98-1.07,2.6-.63,.62-1.55,1.26-2.74,1.94-1.19,.68-2.08,1.32-2.66,1.93-.58,.61-.87,1.43-.87,2.47,0,2.48,1.98,3.72,5.94,3.72h22.55c2.03,0,3.68-.25,4.96-.75,1.28-.5,1.92-1.57,1.92-3.2,0-1.34-.31-2.24-.94-2.68-.62-.44-1.69-.97-3.19-1.56-1.51-.6-2.5-1.27-2.97-2.03-.63-1.19-.94-3.1-.94-5.71,0-1.74-.04-4.36-.11-7.87-.08-3.5-.11-6.12-.11-7.84v-14.65c0-1.63,.04-4.09,.11-7.38Z"/>
  <path class="cls-3" d="M136.94,63.44c-.66-.55-1.44-.83-2.35-.83h0c-.46,.02-1.05,.21-3.65,2.37-1.65,1.37-3.39,2.55-5.17,3.51-1.7,.91-3.66,1.38-5.84,1.38-2.75,0-5.21-.73-7.3-2.18-1.86-1.29-3.35-3.04-4.42-5.21l19.92-8.89c1.3-.48,2.66-1.11,4.05-1.85,1.78-.96,2.54-1.74,2.54-2.62,0-.74-.3-1.63-.91-2.74-.55-.98-1.23-2.04-2.02-3.14-.96-1.33-1.23-1.71-1.29-1.8-.02-.03-.04-.06-.06-.08-1.43-1.7-3.12-3.19-5.03-4.41-1.91-1.22-3.98-2.14-6.16-2.75-2.17-.6-4.42-.91-6.68-.91-4.09,0-8.02,1.05-11.67,3.12-3.65,2.07-6.63,4.89-8.86,8.38-2.24,3.52-3.37,7.38-3.37,11.48,0,4.5,1.05,8.57,3.11,12.11,2.07,3.55,4.97,6.34,8.62,8.29,3.63,1.94,7.73,2.92,12.17,2.92,7.76,0,14.66-2.25,20.5-6.69,.02-.01,.03-.03,.05-.04,3.29-2.86,4.89-5.18,4.89-7.09,0-.94-.37-1.74-1.07-2.33Zm-31.93-20.04c1.07-1.31,2.41-1.95,4.08-1.95,1.14,0,2.39,.45,3.71,1.35,1.38,.94,2.56,2.11,3.49,3.49,.89,1.31,1.34,2.53,1.35,3.65,0,.03-.02,.07-.03,.11-.03,.1-.05,.19-.06,.25-.05,.1-.15,.19-.23,.25-.22,.17-.48,.33-.78,.47-.38,.18-.74,.35-1.06,.51l-8.95,3.99c-.65,.32-.99,.37-1.14,.37-.5,0-1.01-.93-1.36-2.5-.46-2.08-.7-3.89-.7-5.37,0-1.76,.54-3.28,1.66-4.65Z"/>
  <path class="cls-3" d="M162.63,70.27c-.81-.49-1.41-.92-1.79-1.27-.28-.25-.48-.62-.61-1.09-.38-2.38-.57-6.06-.57-10.94V17.3c0-3.65-1-5.51-2.98-5.51-.33,0-.73,.11-1.3,.35-.54,.22-.7,.26-.71,.26-.1,.02-.2,.05-.3,.11l-11.48,6.46c-2.52,1.19-3.8,2.65-3.8,4.34,0,.94,.3,1.69,.9,2.23,.47,.42,1.17,.84,2.14,1.29,.82,.37,1.42,.7,1.81,.98,.24,.17,.4,.44,.49,.84,0,.02,.01,.04,.02,.07,.22,.74,.34,1.99,.34,3.7v24.58c0,.33,.02,1.06,.05,2.15,.03,1.09,.05,2,.05,2.69,0,4.33-.53,6.04-.98,6.71-.66,.99-1.54,1.76-2.63,2.29-1.98,.97-2.4,2.43-2.4,3.49,0,.03,0,.05,0,.08,.14,1.63,1.23,3.58,5.6,3.58h15.48c4.63,0,5.6-2.1,5.6-3.85,0-.89-.29-1.65-.86-2.26-.46-.49-1.14-1.01-2.08-1.58Z"/>
 </g>
</svg>
