<?xml version="1.0" encoding="utf-8"?>
<!-- Generator: Adobe Illustrator 27.9.6, SVG Export Plug-In . SVG Version: 9.03 Build 54986)  -->
<svg version="1.1" id="レイヤー_1" xmlns="http://www.w3.org/2000/svg" xmlns:xlink="http://www.w3.org/1999/xlink" x="0px"
	 y="0px" viewBox="0 0 272 79.8" style="enable-background:new 0 0 272 79.8;" xml:space="preserve">
<style type="text/css">
	.st0{fill:#08294D;}
</style>
<path class="st0" d="M80.5,24c0.1-3.3,0.1-5.8,0.1-7.4c0-3.1,0.3-5.1,0.8-6.1c0.5-1,1.7-1.9,3.6-2.6c2.5-0.8,3.7-2.2,3.7-4.2
	C88.7,1.2,87,0,83.5,0h-1.8H58.6c-1.4,0-2.7,0.4-3.7,1.1c-1.1,0.7-1.6,1.7-1.6,3c0,1.3,0.3,2.2,0.8,2.6c0.6,0.4,1.5,0.9,2.8,1.3
	c1.3,0.5,2.3,1.1,3,2c0.7,0.9,1,2.4,1,4.5l0.1,6.7c0,2.9-0.2,5-0.6,6.4C60,29,59.2,29.9,58,30.5c-1.2,0.6-3.1,0.8-5.7,0.8H35.8
	c-2.5,0-4.3-0.2-5.3-0.7c-1-0.5-1.6-1.3-1.9-2.5c-0.2-1.2-0.3-3.2-0.3-6.1v-5c0-2.8,0.1-4.9,0.3-6.2c0.1-0.9,0.4-1.5,1-1.9
	c0.6-0.4,1.5-0.7,2.7-1.1c1.2-0.4,2.1-0.8,2.7-1.4C35.7,6,36,5.1,36,3.9c-0.2-2.6-2.2-3.9-6-3.9H6.9C2.3,0,0,1.3,0,4
	c0,1.4,0.3,2.4,1,2.9c0.7,0.5,1.8,1,3.3,1.6c1.5,0.6,2.5,1.2,3,1.9c0.3,0.6,0.5,1.4,0.6,2.3c0.1,1,0.2,2,0.2,3.1
	c0,1.1,0.1,2,0.1,2.6c0.2,6.1,0.2,10.6,0.2,13.6v14.4c0,3-0.1,7.5-0.2,13.6c0,0.6,0,1.4-0.1,2.5c0,1.1-0.1,2.1-0.2,3.1
	c-0.1,1-0.3,1.7-0.6,2.3c-0.5,0.8-1.5,1.4-3,2c-1.5,0.6-2.6,1.1-3.3,1.6c-0.6,0.5-1,1.4-1,2.7c0.1,1.7,0.8,2.7,2,3.2
	C3.2,77.8,4.9,78,6.9,78h23.5c3.4,0,5.1-1.4,5.1-4.3c-0.1-1.2-0.4-2-1.1-2.6c-0.6-0.6-1.5-1.1-2.7-1.7c-1.2-0.5-2.1-1.1-2.7-1.8
	c-0.6-0.6-0.9-1.6-0.9-2.9C28,58.1,28,53.2,28,49.9c0-3.9,0.9-6.3,2.7-7c1.7-0.7,4.7-1.1,9-1.1c3,0,7.3,0.1,13.1,0.2
	c2.6,0,4.4,0.3,5.6,1c1.2,0.7,1.9,1.6,2.2,2.9c0.3,1.3,0.4,3.2,0.4,5.7c0,5.1-0.2,9.6-0.5,13.7c-0.1,1.1-0.4,2-1.1,2.6
	c-0.6,0.6-1.6,1.3-2.8,2c-1.2,0.7-2.1,1.3-2.7,1.9c-0.6,0.6-0.9,1.4-0.9,2.5c0,2.5,2,3.7,6,3.7h22.7c2,0,3.7-0.3,5-0.8
	c1.3-0.5,1.9-1.6,1.9-3.2c0-1.4-0.3-2.3-0.9-2.7c-0.6-0.4-1.7-1-3.2-1.6c-1.5-0.6-2.5-1.3-3-2c-0.6-1.2-0.9-3.1-0.9-5.7
	c0-1.8,0-4.4-0.1-7.9c-0.1-3.5-0.1-6.1-0.1-7.9V31.5C80.4,29.8,80.4,27.4,80.5,24z"/>
<path class="st0" d="M137.3,63.4c-0.7-0.6-1.4-0.8-2.4-0.8c0,0,0,0,0,0c-0.5,0-1.1,0.2-3.7,2.4c-1.7,1.4-3.4,2.6-5.2,3.5
	c-1.7,0.9-3.7,1.4-5.9,1.4c-2.8,0-5.2-0.7-7.3-2.2c-1.9-1.3-3.4-3.1-4.4-5.2l20-8.9c1.3-0.5,2.7-1.1,4.1-1.9c1.8-1,2.6-1.7,2.6-2.6
	c0-0.7-0.3-1.6-0.9-2.8c-0.5-1-1.2-2.1-2-3.2c-1-1.3-1.2-1.7-1.3-1.8c0,0,0-0.1-0.1-0.1c-1.4-1.7-3.1-3.2-5.1-4.4
	c-1.9-1.2-4-2.2-6.2-2.8c-2.2-0.6-4.4-0.9-6.7-0.9c-4.1,0-8.1,1.1-11.7,3.1c-3.7,2.1-6.7,4.9-8.9,8.4c-2.3,3.5-3.4,7.4-3.4,11.5
	c0,4.5,1.1,8.6,3.1,12.2c2.1,3.6,5,6.4,8.7,8.3c3.7,1.9,7.8,2.9,12.2,2.9c7.8,0,14.7-2.3,20.6-6.7c0,0,0,0,0,0
	c3.3-2.9,4.9-5.2,4.9-7.1C138.4,64.8,138,64,137.3,63.4z M105.2,43.3c1.1-1.3,2.4-2,4.1-2c1.1,0,2.4,0.5,3.7,1.4
	c1.4,0.9,2.6,2.1,3.5,3.5c0.9,1.3,1.3,2.5,1.4,3.7c0,0,0,0.1,0,0.1c0,0.1,0,0.2-0.1,0.3c-0.1,0.1-0.2,0.2-0.2,0.3
	c-0.2,0.2-0.5,0.3-0.8,0.5c-0.4,0.2-0.7,0.4-1.1,0.5l-9,4c-0.7,0.3-1,0.4-1.1,0.4c-0.5,0-1-0.9-1.4-2.5c-0.5-2.1-0.7-3.9-0.7-5.4
	C103.5,46.2,104.1,44.6,105.2,43.3z"/>
<path class="st0" d="M163.2,71.2c-0.8-0.5-1.4-0.9-1.8-1.3c-0.3-0.3-0.5-0.6-0.6-1.1c-0.4-2.4-0.6-6.1-0.6-11V18c0-3.7-1-5.5-3-5.5
	c-0.3,0-0.7,0.1-1.3,0.3c-0.5,0.2-0.7,0.3-0.7,0.3c-0.1,0-0.2,0.1-0.3,0.1l-11.5,6.5c-2.5,1.2-3.8,2.7-3.8,4.4
	c0,0.9,0.3,1.7,0.9,2.2c0.5,0.4,1.2,0.8,2.2,1.3c0.8,0.4,1.4,0.7,1.8,1c0.2,0.2,0.4,0.4,0.5,0.8c0,0,0,0,0,0.1
	c0.2,0.7,0.3,2,0.3,3.7v24.7c0,0.3,0,1.1,0,2.2c0,1.1,0,2,0,2.7c0,4.4-0.5,6.1-1,6.7c-0.7,1-1.6,1.8-2.6,2.3c-2,1-2.4,2.4-2.4,3.5
	c0,0,0,0.1,0,0.1c0.1,1.6,1.2,3.6,5.6,3.6h15.6c4.7,0,5.6-2.1,5.6-3.9c0-0.9-0.3-1.7-0.9-2.3C164.8,72.3,164.1,71.8,163.2,71.2z"/>
<path class="st0" d="M192.1,71.2c-0.8-0.5-1.4-0.9-1.8-1.3c-0.3-0.3-0.5-0.6-0.6-1.1c-0.4-2.4-0.6-6.1-0.6-11V18c0-3.7-1-5.5-3-5.5
	c-0.3,0-0.7,0.1-1.3,0.3c-0.5,0.2-0.7,0.3-0.7,0.3c-0.1,0-0.2,0.1-0.3,0.1l-11.5,6.5c-2.5,1.2-3.8,2.7-3.8,4.4
	c0,0.9,0.3,1.7,0.9,2.2c0.5,0.4,1.2,0.9,2.2,1.3c0.8,0.4,1.4,0.7,1.8,1c0.2,0.2,0.4,0.4,0.5,0.8c0,0,0,0,0,0.1
	c0.2,0.7,0.3,2,0.3,3.7v24.7c0,0.3,0,1,0,2.2c0,1.1,0,2,0,2.7c0,4.4-0.5,6.1-1,6.7c-0.7,1-1.5,1.8-2.6,2.3c-2,1-2.4,2.4-2.4,3.5
	c0,0,0,0.1,0,0.1c0.1,1.6,1.2,3.6,5.6,3.6h15.6c4.7,0,5.6-2.1,5.6-3.9c0-0.9-0.3-1.7-0.9-2.3C193.7,72.3,193,71.8,192.1,71.2z"/>
<path class="st0" d="M245.6,47.9c-1.6-3.1-3.8-5.7-6.5-7.9c-2.7-2.2-5.7-3.9-9.1-5.1c-3.3-1.2-6.7-1.8-10.1-1.8c-4.3,0-8.4,1-12.1,3
	c-3.8,2-6.9,4.8-9.1,8.3c-2.3,3.6-3.4,7.6-3.4,11.9c0,5,1.1,9.3,3.2,12.8c2.1,3.5,5.2,6.2,9,8c3.8,1.7,8.2,2.6,13.2,2.6
	c4.7,0,9.1-0.8,13.2-2.3c4.2-1.5,7.6-3.9,10.2-7.2c2.6-3.3,3.9-7.4,3.9-12.3C248,54.3,247.2,51,245.6,47.9z M230.4,68.8
	c-1.1,1.4-2.6,2.1-4.7,2.1c-3,0-5.5-1.2-7.9-3.7c-2.4-2.6-4.3-5.7-5.7-9.4c-1.3-3.7-2-7.1-2-10c0-1.9,0.6-3.6,1.8-5.1
	c1.1-1.4,2.5-2.1,4.3-2.1c1.9,0,3.9,0.7,5.8,2.2c2,1.5,3.7,3.6,5.2,6c1.5,2.4,2.8,5,3.6,7.6c0.9,2.6,1.3,4.9,1.3,6.8
	C232.1,65.5,231.5,67.3,230.4,68.8z"/>
</svg>
