<?xml version="1.0" encoding="utf-8"?>
<svg xmlns="http://www.w3.org/2000/svg" viewBox="0 0 130.37 98.79">
<defs>
 <style>
.cls-1 { fill: #e72410; }
.cls-2 { fill: #08294d; }
</style>
 </defs>
 <path class="cls-1" d="M69.88,14.57c5.49,0,10.46,1.03,14.93,3.1,4.46,2.07,8.3,4.95,11.51,8.66,3.21,3.71,5.67,8.22,7.39,13.53,1.72,5.31,2.58,11.17,2.58,17.58s-.98,12.01-2.93,17.32-4.79,9.95-8.51,13.91c-6.32,6.74-14.69,10.12-25.11,10.12-5.49,0-10.46-.97-14.92-2.91-4.46-1.94-8.28-4.7-11.44-8.28-3.16-3.58-5.6-7.9-7.32-12.96-1.72-5.06-2.58-10.7-2.58-16.94,0-6.57,.86-12.52,2.58-17.83,1.72-5.31,4.16-9.84,7.32-13.59,3.16-3.75,7-6.64,11.51-8.66,4.51-2.02,9.51-3.04,14.99-3.04Zm-.14,9.1c-5.77,0-9.25,3.45-10.46,10.35-.28,1.43-.49,4.14-.63,8.14-.14,4-.21,9.11-.21,15.33,0,5.3,.14,9.74,.42,13.32,.28,3.58,.65,6.42,1.11,8.52,1.68,6.39,5.16,9.59,10.46,9.59,2.14,0,3.98-.54,5.51-1.64,1.53-1.09,2.67-2.65,3.42-4.67,.37-1.01,.67-2,.9-2.97,.23-.97,.42-2.1,.56-3.41,.14-1.3,.23-2.92,.28-4.86s.07-4.42,.07-7.45c0-5.47-.02-10.03-.07-13.69-.05-3.66-.14-6.69-.28-9.09-.14-2.4-.33-4.36-.56-5.87-.23-1.51-.53-2.86-.9-4.04-1.58-5.05-4.79-7.57-9.63-7.57Z"/>
 <path class="cls-1" d="M29.76,87.88c-1.01-.62-1.76-1.15-2.24-1.59-.35-.32-.6-.77-.76-1.37-.48-2.99-.72-7.6-.72-13.71V21.48c0-4.58-1.26-6.9-3.73-6.9-.41,0-.91,.13-1.63,.43-.67,.28-.87,.32-.89,.33-.13,.02-.26,.07-.37,.13L5.03,23.56C1.87,25.05,.27,26.88,.27,29c0,1.18,.38,2.12,1.13,2.79,.59,.53,1.47,1.06,2.68,1.62,1.02,.47,1.78,.88,2.27,1.22,.3,.21,.5,.56,.61,1.06,0,.03,.01,.05,.02,.08,.28,.93,.42,2.49,.42,4.64v30.81c0,.4,.02,1.25,.06,2.7,.04,1.41,.06,2.51,.06,3.37,0,5.43-.66,7.57-1.22,8.41-.84,1.26-1.91,2.19-3.29,2.87-2.48,1.21-3.01,3.05-3.01,4.37,0,.03,0,.07,0,.1,.18,2.05,1.54,4.49,7.02,4.49H26.43c5.8,0,7.02-2.63,7.02-4.83,0-1.12-.36-2.07-1.08-2.83-.58-.61-1.43-1.26-2.61-1.99Z"/>
 <path class="cls-2" d="M104.84,15.22c0,.95,0,1.69,.02,2.21,.01,.52,.02,.93,.03,1.2,.01,.28,.03,.47,.05,.58s.06,.23,.1,.36c.23,.74,.71,1.12,1.43,1.12,.58,0,1.24-.23,1.98-.7,.28-.18,.48-.31,.61-.36s.27-.09,.44-.09c.28,0,.51,.09,.69,.26,.18,.18,.28,.4,.28,.68,0,.35-.18,.7-.53,1.06-.35,.36-.8,.68-1.36,.98-.56,.29-1.18,.53-1.87,.71-.68,.18-1.36,.28-2.03,.28s-1.27-.08-1.87-.24c-.59-.16-1.11-.38-1.55-.66-.44-.28-.79-.6-1.06-.98-.26-.37-.4-.75-.4-1.15,0-.35,.03-.76,.1-1.25,.12-.7,.19-1.36,.23-1.98,.03-.63,.05-1.32,.05-2.09,0-2.62-.11-4.07-.31-4.35-.07-.07-.2-.11-.38-.12-.18-.01-.66-.02-1.43-.02-.53,0-.8-.25-.8-.76,0-.14,.01-.26,.03-.35s.08-.2,.17-.33,.23-.28,.42-.47,.45-.44,.8-.76c.16-.14,.31-.28,.43-.42s.26-.28,.4-.42l2.02-2.4s.14-.16,.28-.35c.14-.18,.3-.39,.47-.61,.18-.22,.34-.43,.49-.61,.15-.18,.25-.31,.3-.38,.19-.25,.34-.43,.45-.52,.12-.09,.27-.14,.45-.14,.26,0,.44,.08,.54,.24,.1,.17,.16,.44,.16,.84v3.45c0,.33,0,.58,.02,.75s.07,.3,.16,.38,.23,.13,.4,.16c.18,.02,.44,.03,.79,.03h2.68c.65,0,1.04,.02,1.17,.07s.19,.2,.19,.45c0,.16-.03,.38-.09,.64-.06,.26-.13,.54-.23,.82-.12,.28-.21,.45-.28,.52-.07,.07-.21,.1-.42,.1l-2.99-.03c-.37,0-.64,0-.8,.02-.16,.02-.27,.04-.31,.09-.02,.02-.04,.05-.05,.07s-.02,.08-.03,.16-.02,.21-.03,.4c-.02,.19-.02,.44-.02,.77v3.17Z"/>
 <path class="cls-2" d="M117.56,9.89c.44-.42,.83-.76,1.18-1.03,.35-.26,.67-.48,.98-.63,.3-.15,.6-.26,.91-.33,.3-.07,.63-.11,.98-.11,1.72,0,2.97,.85,3.76,2.54,.3,.63,.63,1.53,.98,2.7,.35,1.17,.75,2.71,1.22,4.61,.16,.72,.31,1.29,.43,1.71,.13,.42,.27,.76,.44,1.03,.16,.27,.35,.48,.58,.64,.22,.17,.51,.34,.89,.52,.32,.19,.49,.48,.49,.87,0,.63-.37,.94-1.11,.94h-6.2c-1.04,0-1.57-.31-1.57-.94,0-.25,.06-.46,.19-.61,.13-.15,.36-.32,.71-.5,.3-.19,.51-.36,.63-.52s.17-.37,.17-.63c0-.23-.04-.58-.12-1.04-.08-.46-.18-.99-.3-1.57-.12-.58-.26-1.19-.43-1.83-.17-.64-.34-1.24-.51-1.79-.35-1.09-.66-1.82-.96-2.2-.29-.37-.69-.56-1.2-.56-.67,0-1.19,.29-1.57,.87-.37,.58-.56,1.42-.56,2.51v1.6c0,1.09,.02,1.98,.05,2.66,.03,.69,.1,1.16,.19,1.41,.07,.25,.16,.44,.26,.56s.35,.26,.75,.45c.58,.28,.87,.64,.87,1.08,0,.69-.56,1.04-1.67,1.04h-5.57c-1.11,0-1.67-.35-1.67-1.04,0-.44,.29-.8,.87-1.08,.39-.19,.65-.35,.78-.51,.13-.15,.23-.41,.3-.78,.05-.28,.09-.76,.12-1.44,.03-.69,.05-1.47,.05-2.35V8.15c0-.67-.01-1.2-.03-1.59-.02-.38-.07-.68-.14-.91-.07-.22-.17-.38-.31-.47-.14-.09-.33-.17-.56-.24-.53-.19-.8-.49-.8-.91,0-.37,.23-.71,.7-1.01l4.28-2.68c.23-.14,.39-.23,.49-.28,.09-.05,.2-.07,.31-.07,.49,0,.73,.48,.73,1.43V9.89Z"/>
</svg>
