<?xml version="1.0" encoding="utf-8"?>
<svg xmlns="http://www.w3.org/2000/svg" viewBox="0 0 99.75 84.02">
<defs>
 <style>
.cls-1 { fill: #08294d; }
</style>
 </defs>
 <path class="cls-1" d="M29.83,73.49c-1.01-.62-1.77-1.16-2.25-1.59-.35-.32-.6-.77-.76-1.37-.48-2.99-.72-7.62-.72-13.74V6.92c0-4.59-1.26-6.92-3.74-6.92-.41,0-.91,.13-1.63,.43-.67,.28-.87,.32-.89,.33-.13,.02-.26,.07-.37,.13L5.04,9.01C1.87,10.5,.27,12.34,.27,14.46c0,1.18,.38,2.12,1.13,2.8,.59,.53,1.47,1.06,2.69,1.62,1.02,.47,1.79,.88,2.27,1.23,.3,.21,.5,.56,.61,1.06,0,.03,.01,.05,.02,.08,.28,.94,.42,2.5,.42,4.65v30.89c0,.4,.02,1.26,.06,2.71,.04,1.41,.06,2.52,.06,3.38,0,5.45-.67,7.59-1.23,8.43-.84,1.26-1.92,2.2-3.3,2.87-2.49,1.22-3.01,3.05-3.01,4.38,0,.03,0,.07,0,.1,.18,2.05,1.54,4.5,7.03,4.5H26.49c5.82,0,7.04-2.63,7.04-4.84,0-1.12-.36-2.07-1.08-2.84-.58-.62-1.44-1.27-2.62-1.99Z"/>
 <path class="cls-1" d="M96.7,44.3c-2.01-3.83-4.74-7.17-8.13-9.93-3.36-2.74-7.18-4.9-11.35-6.4-4.17-1.51-8.41-2.27-12.61-2.27-5.34,0-10.44,1.25-15.16,3.71-4.74,2.47-8.58,5.97-11.41,10.39-2.84,4.44-4.29,9.46-4.29,14.91,0,6.23,1.35,11.63,4,16.03,2.67,4.43,6.45,7.79,11.24,10,4.73,2.18,10.27,3.29,16.48,3.29,5.82,0,11.38-.95,16.55-2.82,5.24-1.9,9.55-4.92,12.79-8.99,3.28-4.11,4.94-9.3,4.94-15.43,0-4.43-1.03-8.63-3.05-12.49Zm-19.01,26.18c-1.38,1.78-3.3,2.64-5.89,2.64-3.69,0-6.92-1.51-9.87-4.63-3.03-3.2-5.41-7.15-7.08-11.76-1.68-4.63-2.53-8.82-2.53-12.46,0-2.38,.72-4.45,2.21-6.34,1.42-1.8,3.17-2.68,5.36-2.68,2.43,0,4.85,.94,7.19,2.79,2.46,1.94,4.66,4.44,6.55,7.44,1.91,3.05,3.45,6.25,4.56,9.53,1.1,3.24,1.66,6.09,1.66,8.46,0,2.8-.73,5.16-2.16,7Z"/>
</svg>
