<?xml version="1.0" encoding="utf-8"?>
<svg xmlns="http://www.w3.org/2000/svg" viewBox="0 0 546.2 478.51">
<defs>
 <style>
.cls-1 { fill: #08294d; }
</style>
 </defs>
 <path class="cls-1" d="M118.47,448.83l12.62-51.18h-12.19l-22.28,23.5c-4.44-3.05-10.27-4.96-17.4-4.96-12.1,0-21.59,6.79-21.59,15.93,0,4.01,2.62,7.66,6.79,7.66,3.83,0,6.88-2.52,6.88-6.53,0-1.39-.35-2.35-.78-3.13-.26-.78-.61-1.48-.61-2.52,0-2.87,3.22-5.48,9.32-5.48,5.39,0,9.66,1.39,12.97,3.66l-19.32,20.37c-17.67,18.63-28.64,25.5-44.14,25.5-11.23,0-22.28-7.92-22.28-21.24,0-14.88,12.28-23.59,22.9-23.59,7.4,0,10.18,3.31,10.18,6.61,0,2.7-1.57,4.01-3.13,5.4-1.66,1.48-3.31,2.96-3.31,6,0,3.74,3.14,6.62,7.4,6.62,5.74,0,10.53-5.05,10.53-12.62,0-9.4-7.83-17.93-20.89-17.93-15.41,0-30.12,12.19-30.12,29.51,0,15.93,11.75,27.16,28.72,27.16s28.99-6.96,48.75-27.77l19.06-20.11c4.61,5.57,6.35,13.06,6.18,18.98v.17c-1.3,5.22-2.87,5.66-8.26,6.09l-.87,3.66h29.25l.87-3.66c-5.48-.43-6.52-.96-5.22-6.09Zm-12.28-14.19c-.96-3.48-2.69-6.79-5.22-9.58l10.27-10.79-5.05,20.37Z"/>
 <path class="cls-1" d="M177.32,430.72c2.79-11.31-4.18-13.58-10.62-13.58-4.44,0-9.92,1.91-13.93,4.09l1.04-4.09h-5.05l-15.15,7.31-.87,3.4h2.69c1.57,0,1.92,.79,1.4,2.61l-5.13,20.63c-.61,2.61-1.57,3.4-5.57,3.83l-.96,3.66h23.07l.96-3.66c-3.92-.43-4.44-1.22-3.83-3.83l5.92-24.03c2.79-1.57,5.57-2.52,8.36-2.52,3.22,0,5.13,1.65,4.01,5.83l-6.88,28.2h18.28l.96-3.66c-3.83-.43-4.44-1.22-3.83-3.83l5.13-20.37Z"/>
 <path class="cls-1" d="M236.73,463.62c-4.01,0-5.31,2.61-6.53,5.22-1.13,2.26-2.17,4.53-5.31,4.53-2.35,0-4.35-1.22-4.35-4.7,0-.96,.18-2.09,.52-3.48l8.53-34.47c.44-1.74,.61-3.31,.61-4.61,0-7.31-5.83-8.97-11.23-8.97-4.44,0-9.92,1.91-13.93,4.09l1.04-4.09h-5.05l-15.15,7.31-.87,3.4h2.7c1.13,0,1.65,.44,1.65,1.31,0,.35-.08,.78-.26,1.3l-5.13,20.63c-.61,2.61-1.57,3.4-5.57,3.83l-.96,3.66h23.07l.96-3.66c-3.05-.35-4.01-.87-4.01-2.35,0-.44,0-.87,.18-1.48l5.92-24.03c2.79-1.57,5.57-2.52,8.36-2.52,2.61,0,4.35,1.04,4.35,3.66,0,.61-.08,1.39-.35,2.18l-7.23,29.77c-.43,1.92-.69,3.74-.69,5.31,0,8.79,6.52,13.06,16.01,13.06,10.27,0,17.67-4.26,17.67-10.36,0-2.87-2.36-4.53-4.96-4.53Z"/>
 <path class="cls-1" d="M254.9,417.14h-5.05l-15.15,7.31-.87,3.4h2.69c1.57,0,1.92,.79,1.4,2.61l-5.13,20.63c-.61,2.61-1.57,3.4-5.57,3.83l-.96,3.66h23.07l.96-3.66c-3.92-.43-4.44-1.22-3.83-3.83l8.44-33.95Z"/>
 <path class="cls-1" d="M251.59,397.21c-5.05,0-7.83,3.83-7.83,7.49s2.52,6.96,7.31,6.96c5.13,0,8.1-3.74,8.1-7.4s-2.79-7.05-7.57-7.05Z"/>
 <path class="cls-1" d="M317.99,406.96c4.18,0,5.75,1.83,7.14,3.66,1.3,1.57,2.61,3.05,5.57,3.05,3.83,0,6-2.87,6-6.09,0-5.74-7.22-8.44-12.71-8.44-10.7,0-21.76,6.18-35.51,27.07l-11.49,17.67-2.44-16.02c-.08-.43-.08-.87-.08-1.22,0-3.22,2.35-4.18,6.35-4.53l.95-3.66h-24.02l-.96,3.66c3.39,.43,3.65,2.35,4.17,6.09l4.88,30.38h8.18l19.68-29.94c11.05-17.06,18.45-21.68,24.28-21.68Z"/>
 <path class="cls-1" d="M331.55,438.73c-3.22-.08-6.53,2.35-6.53,6.18,0,.96,.26,1.65,.52,2.26,.18,.61,.44,1.13,.44,1.91,0,2.26-2.87,4.96-7.4,4.96-5.83,0-8.97-3.4-8.97-9.75,0-1.13,0-2.35,.18-3.66l28.9-8.88c0-10.27-8.26-14.62-17.84-14.62-13.58,0-24.72,9.92-24.72,24.89,0,10.01,8.01,17.84,20.54,17.84,11.58,0,20.11-7.83,20.37-15.06,.08-3.22-1.57-6.09-5.49-6.09Zm-10.18-16.36c4.17,0,6.18,2.44,5.66,6.96l-16.1,5.05c1.65-6.27,4.87-12.01,10.44-12.01Z"/>
 <path class="cls-1" d="M357.63,452.57c0-.44,0-.87,.18-1.48l3.57-14.45c7.05-13.75,16.97-23.42,22.19-23.42,1.48,0,2.26,.35,3.14,.69,.87,.44,1.74,.79,3.39,.79,3.4,0,6.79-2.44,6.79-6.36s-3.13-6.18-7.14-6.18c-7.92,0-18.02,9.66-24.89,20.55l1.39-5.57h-5.05l-15.15,7.31-.87,3.4h2.69c1.14,0,1.66,.44,1.66,1.31,0,.35-.08,.78-.26,1.3l-5.13,20.63c-.61,2.61-1.57,3.4-5.57,3.83l-.96,3.66h23.07l.96-3.66c-3.05-.35-4.01-.87-4.01-2.35Z"/>
 <path class="cls-1" d="M392.35,422.02c4.7,0,10.18,3.57,12.79,10.36l3.48-.35-.96-13.58h-3.22l-1.57,2.44c-2.35-1.91-5.75-3.74-11.49-3.74-10.62,0-18.28,5.66-18.28,13.67,0,8.44,8.26,10.79,14.53,13.23,3.74,1.39,6.7,2.87,6.7,5.57,0,3.31-2.96,5.14-6.96,5.14-5.75,0-12.97-3.92-16.11-12.1l-3.05,.52,1.22,15.41h3.31l1.57-2.7c2.62,1.91,7.67,4,13.67,4,10.45,0,19.33-5.57,19.33-14.8,0-7.92-7.14-10.53-12.98-12.8-4.17-1.57-7.66-2.96-7.66-5.83,0-2.44,2-4.44,5.66-4.44Z"/>
 <path class="cls-1" d="M438.11,417.14c-13.49,0-20.8,4.35-20.8,10.53,0,3.22,2.35,4.53,4.61,4.53,3.13,0,5.83-1.65,7.92-5.23,1.92-3.31,3.84-4.7,6.79-4.7,3.74,0,4.7,1.74,3.31,7.31l-1.22,4.79c-16.8,.35-29.59,5.92-29.59,16.45,0,5.48,4.35,8.88,10.61,8.88,5.57,0,10.36-2.52,14.36-5.31,0,4.01,3.22,5.22,7.66,5.22,3.92,0,6.79-.69,9.49-2.18l1.22-4.44c-1.3,.52-2.18,.61-2.79,.61-1.57,0-2.09-.96-1.57-3.31l4.78-19.06c2.79-11.05-6.44-14.1-14.79-14.1Zm-3.05,32.03c-2.26,1.57-4.79,2.52-6.79,2.52-2.87,0-4.53-1.48-4.53-4.01,0-5.31,5.14-8.18,13.76-8.44l-2.44,9.93Z"/>
 <path class="cls-1" d="M474.29,452.57c0-.44,0-.87,.18-1.48l3.57-14.45c7.05-13.75,16.97-23.42,22.19-23.42,1.48,0,2.26,.35,3.14,.69,.87,.44,1.74,.79,3.39,.79,3.4,0,6.79-2.44,6.79-6.36s-3.13-6.18-7.14-6.18c-7.92,0-18.02,9.66-24.89,20.55l1.39-5.57h-5.05l-15.15,7.31-.87,3.4h2.7c1.13,0,1.65,.44,1.65,1.31,0,.35-.08,.78-.26,1.3l-5.13,20.63c-.61,2.61-1.57,3.4-5.57,3.83l-.96,3.66h23.07l.96-3.66c-3.05-.35-4.01-.87-4.01-2.35Z"/>
 <path class="cls-1" d="M516.23,424.45l-.87,3.4h2.69c1.57,0,1.83,.79,1.4,2.61l-4.44,17.93c-2.87,1.57-5.57,2.52-8.36,2.52-3.22,0-5.13-1.66-4.01-5.84l6.97-27.94h-5.05l-15.15,7.31-.87,3.4h2.69c1.57,0,1.83,.79,1.4,2.61l-3.65,14.28c-2.79,11.31,4.17,13.58,10.53,13.58,5.13,0,10.8-2.35,14.01-4.18l-1.47,6.35c-1.57,6.44-4.27,9.49-10.54,9.49-9.58,0-4.44-9.92-12.27-9.92-3.48,0-6.45,2.7-6.45,6.27,0,5.14,5.39,9.58,17.33,9.58,13.57,0,23.59-7.49,26.46-18.98l9.84-39.78h-5.05l-15.15,7.31Z"/>
 <path class="cls-1" d="M191.54,309.47c-.5-1.34-.91-2.83-1.3-4.36l-16.44-16.44c2.83,11.31,8.54,16.97,17.73,20.8Z"/>
 <path class="cls-1" d="M188.39,292.64c-.23-3.12-.38-6.43-.38-10.18v-.81l-16.38-16.38v.82c0,3.69,.11,7.04,.33,10.13l16.42,16.42Z"/>
 <polygon class="cls-1" points="188.01 260.43 171.63 244.06 171.63 254.67 188.01 271.04 188.01 260.43"/>
 <polygon class="cls-1" points="188.01 239.21 171.63 222.83 171.63 233.45 188.01 249.82 188.01 239.21"/>
 <polygon class="cls-1" points="188.01 217.99 171.63 201.61 171.63 212.22 188.01 228.6 188.01 217.99"/>
 <polygon class="cls-1" points="188.01 196.77 171.63 180.39 171.63 191 188.01 207.38 188.01 196.77"/>
 <polygon class="cls-1" points="188.01 175.55 171.63 159.17 171.63 169.78 188.01 186.16 188.01 175.55"/>
 <polygon class="cls-1" points="188.01 154.33 171.63 137.95 171.63 148.56 188.01 164.94 188.01 154.33"/>
 <polygon class="cls-1" points="188.01 133.11 171.63 116.73 171.63 127.34 188.01 143.72 188.01 133.11"/>
 <polygon class="cls-1" points="188.01 111.88 171.63 95.51 171.63 106.12 188.01 122.5 188.01 111.88"/>
 <polygon class="cls-1" points="188.01 90.66 171.63 74.29 171.63 84.9 188.01 101.27 188.01 90.66"/>
 <polygon class="cls-1" points="188.01 69.44 171.63 53.07 171.63 63.68 188.01 80.05 188.01 69.44"/>
 <polygon class="cls-1" points="188.01 48.22 171.63 31.85 171.63 42.46 188.01 58.83 188.01 48.22"/>
 <polygon class="cls-1" points="188.01 27 171.63 10.62 171.63 21.24 188.01 37.61 188.01 27"/>
 <polygon class="cls-1" points="23.62 83.42 40 99.79 50.61 99.79 34.23 83.42 23.62 83.42"/>
 <polygon class="cls-1" points="52.92 83.42 44.84 83.42 52.92 91.5 52.92 83.42"/>
 <polygon class="cls-1" points="23.12 335.68 39.49 352.05 50.1 352.05 33.73 335.68 23.12 335.68"/>
 <polygon class="cls-1" points="71.33 352.05 54.95 335.68 44.34 335.68 60.71 352.05 71.33 352.05"/>
 <polygon class="cls-1" points="92.55 352.05 76.17 335.68 65.56 335.68 81.94 352.05 92.55 352.05"/>
 <polygon class="cls-1" points="113.77 352.05 97.39 335.68 86.78 335.68 103.16 352.05 113.77 352.05"/>
 <polygon class="cls-1" points="134.99 352.05 118.61 335.68 108 335.68 124.38 352.05 134.99 352.05"/>
 <polygon class="cls-1" points="156.21 352.05 139.83 335.68 129.22 335.68 145.6 352.05 156.21 352.05"/>
 <polygon class="cls-1" points="177.43 352.05 161.05 335.68 150.44 335.68 166.82 352.05 177.43 352.05"/>
 <polygon class="cls-1" points="198.65 352.05 182.28 335.68 171.67 335.68 188.04 352.05 198.65 352.05"/>
 <polygon class="cls-1" points="219.87 352.05 203.5 335.68 192.89 335.68 209.26 352.05 219.87 352.05"/>
 <polygon class="cls-1" points="230.48 341.44 214.11 325.07 214.11 335.68 230.48 352.05 230.48 341.44"/>
 <path class="cls-1" d="M283.74,320.11l16.46,16.46c6.64,3.94,13.62,7.37,20.89,10.28l-16.59-16.59c-7.21-2.91-14.18-6.24-20.76-10.15Z"/>
 <path class="cls-1" d="M350.87,355.4l-16.38-16.38c-4.69-.86-9.29-1.93-13.8-3.19l16.44,16.43c4.48,1.25,9.07,2.27,13.74,3.13Z"/>
 <path class="cls-1" d="M374.71,358.02l-16.49-16.49c-3.84-.15-7.65-.38-11.39-.78l16.5,16.5c3.74,.4,7.55,.63,11.39,.77Z"/>
 <path class="cls-1" d="M395.46,357.55l-16.38-16.38c-3.32,.28-6.68,.46-10.07,.54l16.38,16.38c3.39-.08,6.75-.26,10.07-.54Z"/>
 <path class="cls-1" d="M414.04,354.91l-16.38-16.38c-2.98,.61-6,1.12-9.05,1.56l16.38,16.38c3.05-.44,6.07-.95,9.05-1.56Z"/>
 <path class="cls-1" d="M350.92,291.79l-16.36-16.36c1.05,5.23,2.24,10,3.63,14.24l16.35,16.35c-1.38-4.24-2.57-9-3.61-14.23Z"/>
 <path class="cls-1" d="M430.83,350.48l-16.38-16.38c-2.7,.88-5.42,1.69-8.19,2.42l16.38,16.38c2.76-.73,5.49-1.55,8.19-2.42Z"/>
 <path class="cls-1" d="M347.4,267.05l-16.39-16.39c.41,4.2,.87,8.2,1.39,12l16.4,16.4c-.52-3.81-.98-7.81-1.39-12Z"/>
 <path class="cls-1" d="M446.15,344.58l-16.38-16.38c-2.46,1.1-4.96,2.15-7.49,3.12l16.38,16.38c2.53-.98,5.03-2.02,7.49-3.12Z"/>
 <path class="cls-1" d="M345.76,244.18l-16.39-16.39c.2,3.89,.43,7.65,.68,11.29l16.39,16.39c-.26-3.63-.48-7.41-.68-11.29Z"/>
 <path class="cls-1" d="M344.94,222.15l-16.37-16.36c.09,3.72,.19,7.39,.32,10.93l16.38,16.38c-.13-3.56-.24-7.2-.33-10.94Z"/>
 <path class="cls-1" d="M460.19,337.4l-16.38-16.38c-2.25,1.3-4.55,2.55-6.87,3.74l16.38,16.38c2.32-1.19,4.62-2.44,6.87-3.74Z"/>
 <path class="cls-1" d="M473.08,329.06l-16.38-16.38c-2.06,1.49-4.17,2.92-6.31,4.3l16.38,16.37c2.14-1.38,4.24-2.82,6.31-4.3Z"/>
 <path class="cls-1" d="M344.6,200.59l-16.38-16.38c.03,3.68,.08,7.21,.14,10.75l16.37,16.37c-.05-3.51-.09-7.09-.12-10.74Z"/>
 <path class="cls-1" d="M484.89,319.65l-16.38-16.38c-1.89,1.66-3.81,3.28-5.77,4.84l16.38,16.38c1.96-1.56,3.88-3.18,5.77-4.84Z"/>
 <path class="cls-1" d="M344.54,185.24c0-2.04,.02-3.92,.02-5.92l-16.38-16.38c0,1.99-.02,3.88-.02,5.92,0,1.6,.02,3.11,.02,4.69l16.37,16.37c0-1.57-.01-3.09-.01-4.68Z"/>
 <path class="cls-1" d="M344.74,158.28l-16.38-16.38c-.05,3.45-.11,6.88-.14,10.48l16.38,16.38c.03-3.6,.08-7.02,.14-10.48Z"/>
 <path class="cls-1" d="M495.66,309.2l-16.38-16.37c-1.72,1.83-3.47,3.61-5.26,5.35l16.38,16.38c1.79-1.74,3.54-3.53,5.26-5.35Z"/>
 <path class="cls-1" d="M505.43,297.75l-16.38-16.38c-1.55,1.99-3.13,3.94-4.76,5.85l16.38,16.38c1.63-1.91,3.21-3.86,4.76-5.85Z"/>
 <path class="cls-1" d="M345.21,137.54l-16.38-16.38c-.11,3.35-.21,6.8-.29,10.32l16.38,16.38c.08-3.52,.17-6.97,.29-10.32Z"/>
 <path class="cls-1" d="M346.17,117.27l-16.38-16.38c-.2,3.25-.38,6.63-.54,10.07l16.38,16.38c.16-3.45,.34-6.82,.54-10.07Z"/>
 <path class="cls-1" d="M514.21,285.31l-16.38-16.38c-1.38,2.15-2.8,4.27-4.26,6.35l16.38,16.38c1.47-2.08,2.88-4.19,4.26-6.35Z"/>
 <path class="cls-1" d="M347.8,97.68l-16.38-16.38c-.34,3.13-.67,6.29-.95,9.66l16.38,16.38c.28-3.37,.61-6.53,.95-9.66Z"/>
 <path class="cls-1" d="M521.96,271.84l-16.38-16.38c-1.2,2.32-2.45,4.61-3.75,6.86l16.38,16.38c1.3-2.25,2.55-4.54,3.75-6.86Z"/>
 <path class="cls-1" d="M528.65,257.31l-16.37-16.38c-1.02,2.5-2.09,4.97-3.21,7.4l16.37,16.38c1.12-2.43,2.19-4.9,3.21-7.4Z"/>
 <path class="cls-1" d="M350.51,79.17l-16.38-16.38c-.55,2.89-1.05,5.92-1.51,9.1l16.38,16.38c.46-3.19,.96-6.21,1.51-9.1Z"/>
 <path class="cls-1" d="M534.2,241.64l-16.38-16.38c-.82,2.7-1.69,5.36-2.62,7.99l16.37,16.38c.93-2.63,1.81-5.29,2.62-7.99Z"/>
 <path class="cls-1" d="M354.82,62.26l-16.38-16.38c-.87,2.54-1.68,5.27-2.41,8.2l16.38,16.38c.74-2.93,1.54-5.66,2.41-8.2Z"/>
 <path class="cls-1" d="M520.14,216.96l16.38,16.38c.72-2.85,1.38-5.72,1.98-8.64l-16.38-16.38c-.59,2.91-1.25,5.79-1.98,8.63Z"/>
 <path class="cls-1" d="M361.82,48.04l-16.38-16.38c-1.42,1.95-2.72,4.2-3.93,6.68l16.38,16.38c1.21-2.49,2.51-4.73,3.93-6.68Z"/>
 <path class="cls-1" d="M373.8,38.8l-16.38-16.38c-2.48,.85-4.82,2-6.91,3.7l16.38,16.38c2.09-1.69,4.43-2.84,6.91-3.7Z"/>
 <path class="cls-1" d="M523.73,199.34l16.37,16.38c.48-3.09,.9-6.22,1.24-9.37l-16.38-16.38c-.34,3.16-.75,6.28-1.23,9.38Z"/>
 <path class="cls-1" d="M525.78,180.17l16.38,16.38c.2-3.39,.33-6.8,.36-10.25l-16.38-16.38c-.03,3.45-.16,6.86-.36,10.25Z"/>
 <path class="cls-1" d="M386.68,38c-5.27-10.81-11.91-16.41-19.98-16.92l16.44,16.44c1.2,.09,2.4,.17,3.54,.48Z"/>
 <path class="cls-1" d="M542.36,175.52c-.15-3.83-.39-7.62-.74-11.35l-16.46-16.46c.35,3.71,.52,7.49,.68,11.29l16.52,16.52Z"/>
 <path class="cls-1" d="M521.04,122.37c.99,4.34,1.91,8.73,2.61,13.22l16.44,16.44c-.7-4.47-1.57-8.85-2.55-13.16l-16.5-16.5Z"/>
 <path class="cls-1" d="M510.84,90.95c2.35,5.43,4.4,11.06,6.23,16.84l16.63,16.63c-1.82-5.79-3.91-11.41-6.25-16.86l-16.61-16.61Z"/>
 <path class="cls-1" d="M484.86,48.93c5.24,6.09,9.92,12.74,14.25,19.68l16.75,16.75c-8.57-13.84-18.97-26.11-31-36.43Z"/>
 <path class="cls-1" d="M544.18,2.79c-1.35-1.09-3.13-1.63-5.35-1.63-2.41,0-4.88,.59-7.4,1.75-2.52,1.17-4.92,3.04-7.21,5.62-1.19-.41-2.4-.84-3.62-1.29-1.23-.44-2.45-.9-3.69-1.35-1.93-.74-3.86-1.45-5.8-2.15-1.94-.7-3.93-1.32-5.95-1.88-2.03-.55-4.08-1-6.14-1.35-2.07-.35-4.17-.52-6.3-.52-2.41,0-4.65,.36-6.72,1.07-2.07,.72-3.86,1.69-5.37,2.92s-2.7,2.68-3.56,4.36c-.86,1.68-1.29,3.5-1.29,5.47,0,1.4,.23,2.68,.68,3.87,.45,1.18,1.09,2.21,1.9,3.07s1.8,1.52,2.95,2c1.14,.47,2.43,.71,3.86,.71,1.06,0,2.07-.14,3.01-.43,.94-.28,1.76-.68,2.45-1.2,.7-.51,1.25-1.12,1.66-1.84,.41-.71,.62-1.5,.62-2.36,0-1.06-.34-2.02-1.02-2.86-.68-.84-1.63-1.26-2.86-1.26-1.06,0-1.9,.24-2.52,.73-.61,.49-1.15,1-1.59,1.54-.37,.45-.74,.83-1.11,1.14-.37,.3-.82,.46-1.35,.46-.94,0-1.69-.39-2.24-1.16-.55-.78-.83-1.76-.83-2.95,0-2.09,.75-3.86,2.27-5.32,1.52-1.45,3.66-2.2,6.45-2.24,1.88,0,3.82,.16,5.8,.49,1.99,.33,4.04,.74,6.17,1.23l-8.22,32.92c-.25,1.02-.51,1.83-.8,2.43-.28,.59-.66,1.05-1.1,1.38-.45,.32-1.04,.55-1.76,.68-.71,.12-1.62,.23-2.73,.3l-.55,2.09h19.28l.55-2.09c-1.11-.08-1.98-.18-2.64-.3-.66-.13-1.15-.35-1.47-.68-.33-.33-.49-.79-.47-1.38s.16-1.4,.4-2.43l7.68-30.77c2.09,.58,4.17,1.15,6.26,1.72s4.24,1.09,6.45,1.54c-1.27,1.96-2.43,4.22-3.47,6.78-1.04,2.56-1.95,5.42-2.73,8.57l-3.5,14.06c-.25,.98-.66,1.67-1.23,2.06-.57,.39-1.64,.66-3.19,.83l-.49,2.09h14.98l.49-2.09c-1.43-.12-2.34-.39-2.73-.8-.4-.41-.47-1.11-.22-2.09l3.44-14.06,.92-3.5c1.19-.69,2.36-1.23,3.5-1.62,1.14-.39,2.21-.59,3.19-.59,1.52,0,2.54,.54,3.07,1.63,.53,1.09,.8,2.46,.8,4.14,0,.95-.13,2.32-.4,4.12-.27,1.8-.66,3.79-1.17,5.99-.51,2.19-1.16,4.42-1.93,6.69-.78,2.27-1.68,4.35-2.7,6.23-1.03,1.88-2.17,3.42-3.44,4.6-1.27,1.18-2.66,1.78-4.17,1.78-.58,0-1.06-.16-1.45-.47-.39-.3-.77-.68-1.14-1.14-.45-.53-.95-1.02-1.5-1.47-.56-.45-1.35-.68-2.37-.68s-1.97,.38-2.73,1.14c-.76,.75-1.14,1.69-1.14,2.79,0,1.43,.57,2.57,1.72,3.43,1.14,.86,2.64,1.29,4.48,1.29,2.17,0,4.32-.5,6.45-1.5,2.12-1,4.14-2.38,6.04-4.12,1.9-1.73,3.67-3.74,5.28-6.02,1.62-2.27,3.02-4.69,4.21-7.24,1.18-2.56,2.11-5.16,2.76-7.8,.65-2.64,.98-5.19,.98-7.65,0-3.11-.59-5.54-1.75-7.31-1.17-1.76-3.19-2.64-6.05-2.64-1.35,0-2.88,.23-4.58,.71-1.7,.47-3.32,1.09-4.88,1.88,.45-1.35,.9-2.62,1.35-3.78,.44-1.16,.9-2.24,1.35-3.22,2.74,.37,5.53,.55,8.36,.55,1.67,0,3.18-.19,4.51-.59,1.33-.39,2.46-.92,3.41-1.59,.94-.68,1.66-1.45,2.15-2.33,.49-.88,.73-1.83,.73-2.86,0-1.76-.68-3.18-2.02-4.27Zm-1.9,5.62c-.2,.45-.54,.86-1.02,1.23-.47,.37-1.09,.68-1.87,.92-.78,.24-1.74,.37-2.89,.37s-2.38-.08-3.59-.25c-1.21-.16-2.43-.39-3.65-.68,1.39-2,2.89-3.43,4.51-4.27,1.61-.84,3.41-1.26,5.37-1.26,1.02,0,1.85,.21,2.48,.62s.95,1.06,.95,1.96c0,.45-.1,.9-.3,1.35Z"/>
 <path class="cls-1" d="M129.55,159.42s-2.16,1.61-5.33,6.72c-3.04,4.9-4.85,8.13-4.99,8.39,.14-.18,.61-.54,2.18-.6,2.09-.08,7.61-2.9,9.8-7.36,2.18-4.46-1.66-7.15-1.66-7.15Z"/>
 <path class="cls-1" d="M120.62,177.58c-2.09-.21-2.04-1.61-2.04-1.61,0,0-1.18,2.47-4.08,6.93-2.9,4.46-4.94,6.77-4.94,6.77,0,0,3.33-1.83,4.89-.11,1.56,1.72-2.68,5.16-.97,6.98,1.71,1.83,4.95,1.56,9.14-1.72,4.19-3.28,5.8-8.38,4.94-11.92-.86-3.55-4.84-5.1-6.94-5.32Z"/>
 <path class="cls-1" d="M206.66,321.36c-28.65-6.66-42.47-15.35-42.47-55.26V7.17h-63.96c-6.65,32.75-31.73,58.85-80.33,60.38v8.69H59.81v189.84c0,42.98-17.91,50.66-40.43,55.26v7.16H206.66v-7.16Zm-68.17-167.9c-1.77,.64-3.38,1.53-3.38,1.53,0,0,5.94,4.73,3.14,11.44-2.79,6.71-9.41,9.05-9.41,9.05,0,0,6.45-.81,7.96,4.3,1.5,5.1-1.66,11.33-7.3,16.22-5.64,4.89-14.67,6.66-19.4,3.33-4.73-3.33-2.04-7.9-2.04-7.9,0,0-3.55,4.4-9.13,7.25-5.59,2.85-9.83,3.33-13.97,1.45-4.14-1.88-4.3-5.69-2.9-7.68,1.4-1.99,4.83-2.1,6.07,.32,1.61,3.14-1.07,4.83-1.07,4.83,0,0,1.18,1.56,5.1,.86,3.92-.7,7.04-3.6,11.33-9.83,4.3-6.23,7.85-13.43,13.09-20.84,5.24-7.41,9.35-10.64,9.35-10.64,0,0-5.32-1.91-12.76-1.24-7.44,.67-13.83,3.41-18.75,8.65-4.92,5.24-8,14.56-3.82,19.29,4.18,4.73,10.11,1.5,12.68-2.26,2.58-3.76,2.31-9.62,2.26-11.44-.05-1.83,1.67-2.31,2.1-.32,.43,1.99,1.18,7.95-1.61,13.16-2.79,5.21-7.21,7.04-11.66,7.04s-10.74-3.95-10.74-12.41,3.76-14.45,10.64-19.66c6.88-5.21,15.89-8.22,24.06-8.22s14.29,2.74,14.29,2.74c0,0,1.45-.72,4.03-1.53,2.58-.81,4.77-1.21,4.99,.3,.22,1.5-1.36,1.56-3.13,2.2Z"/>
 <path class="cls-1" d="M365.29,334.66c87.5,0,154.02-70.61,154.02-166.81S456.37,2.57,365.29,2.57c-81.36,0-153.5,70.62-153.5,165.28,0,99.78,67.54,166.81,153.5,166.81Zm.52-320.83c33.26,0,44,56.29,44,155.04s-3.58,154.53-44,154.53c-37.87,0-44.52-55.77-44.52-154.53s5.63-155.04,44.52-155.04Z"/>
</svg>
